<svg width="1900" height="760" viewBox="0 0 1900 760" xmlns="http://www.w3.org/2000/svg">
  <defs>
    <linearGradient id="g1" x1="0" x2="1" y1="0" y2="1"><stop stop-color="#d7cab5"/><stop offset="1" stop-color="#857660"/></linearGradient>
    <linearGradient id="g2" x1="0" x2="1" y1="0" y2="1"><stop stop-color="#f0efe9"/><stop offset="1" stop-color="#b5a99b"/></linearGradient>
    <linearGradient id="g3" x1="0" x2="1" y1="0" y2="1"><stop stop-color="#0d1925"/><stop offset="0.55" stop-color="#26415a"/><stop offset="1" stop-color="#ff4a12"/></linearGradient>
    <linearGradient id="g4" x1="0" x2="1" y1="0" y2="1"><stop stop-color="#00556a"/><stop offset="1" stop-color="#ecf7fa"/></linearGradient>
    <linearGradient id="g5" x1="0" x2="1" y1="0" y2="1"><stop stop-color="#111"/><stop offset="1" stop-color="#343434"/></linearGradient>
    <filter id="shadow" x="-20%" y="-20%" width="140%" height="140%"><feDropShadow dx="0" dy="24" stdDeviation="24" flood-color="#000" flood-opacity=".25"/></filter>
    <filter id="blur"><feGaussianBlur stdDeviation="1.3"/></filter>
  </defs>
  <rect width="1900" height="760" fill="#111"/>
  <g>
    <rect x="0" y="0" width="330" height="760" fill="url(#g1)"/>
    <g transform="translate(70 220) rotate(-13)" filter="url(#shadow)">
      <rect width="210" height="340" rx="10" fill="#f4efe2"/>
      <text x="22" y="70" font-family="Arial" font-size="52" font-weight="800" fill="#4c6a3a">SEO</text>
      <text x="24" y="108" font-family="Arial" font-size="20" font-weight="700" fill="#4c6a3a">audit</text>
      <path d="M20 280 C70 230 115 320 190 270" stroke="#4c6a3a" stroke-width="10" fill="none"/>
      <g fill="#9f9582" font-family="Arial" font-size="11"><text x="24" y="145">Organic growth</text><text x="24" y="166">Technical SEO</text><text x="24" y="187">Conversion pages</text></g>
    </g>
  </g>
  <g transform="translate(354)">
    <rect width="430" height="760" fill="url(#g2)"/>
    <rect x="150" y="185" width="220" height="350" rx="8" fill="#2b2b2b" filter="url(#shadow)"/>
    <rect x="170" y="210" width="180" height="120" rx="10" fill="#d8e4d3"/>
    <circle cx="230" cy="270" r="42" fill="#93b886"/>
    <rect x="185" y="355" width="150" height="10" rx="5" fill="#fff" opacity=".75"/>
    <rect x="185" y="377" width="125" height="10" rx="5" fill="#fff" opacity=".4"/>
    <text x="184" y="480" font-family="Georgia" font-size="42" fill="#eee">brand</text>
    <rect x="120" y="560" width="220" height="120" rx="6" fill="#161616" opacity=".84"/>
    <text x="165" y="635" font-family="Arial" font-size="60" fill="#777" opacity=".55">M</text>
  </g>
  <g transform="translate(808)">
    <rect width="450" height="760" fill="url(#g3)"/>
    <path d="M0 480 C120 430 210 390 450 405 L450 760 L0 760Z" fill="#091018" opacity=".55"/>
    <rect x="75" y="420" width="310" height="110" rx="32" fill="#159dfb" filter="url(#shadow)"/>
    <rect x="105" y="395" width="55" height="165" rx="16" fill="#0f77c9"/>
    <path d="M180 445 L275 390 L380 445 L285 502 Z" fill="#fff" opacity=".9"/>
    <path d="M135 375 C180 250 260 300 300 190 C330 310 410 250 440 350" stroke="#dfc7a0" stroke-width="14" fill="none" opacity=".65"/>
  </g>
  <g transform="translate(1282)">
    <rect width="430" height="760" fill="url(#g4)"/>
    <path d="M65 145 C170 85 215 160 340 110 C310 170 255 184 220 240 C180 305 100 270 65 145Z" fill="#6c4d35" opacity=".75" filter="url(#shadow)"/>
    <g transform="translate(110 270) rotate(11)" filter="url(#shadow)">
      <rect width="220" height="290" rx="10" fill="#f4f7fb"/>
      <text x="28" y="58" font-family="Arial" font-weight="900" font-size="28" fill="#0c2637">Google</text>
      <text x="28" y="90" font-family="Arial" font-weight="900" font-size="46" fill="#10a6ff">ADS</text>
      <rect x="28" y="125" width="160" height="12" rx="6" fill="#c8d1dc"/><rect x="28" y="150" width="120" height="12" rx="6" fill="#c8d1dc"/>
      <g transform="translate(0 220)"><rect width="220" height="70" fill="#10a6ff"/><path d="M0 250 L40 220 L80 250 L120 220 L160 250 L200 220 L240 250" stroke="#fff" stroke-width="16"/></g>
    </g>
    <rect x="250" y="505" width="145" height="85" rx="7" fill="#0a151d" transform="rotate(12 250 505)"/>
    <text x="270" y="550" font-family="Arial" font-size="24" font-weight="900" fill="#fff" transform="rotate(12 250 505)">SEO</text>
  </g>
  <g transform="translate(1736)">
    <rect width="164" height="760" fill="url(#g5)"/>
    <path d="M20 620 L130 620 L130 220 L20 220Z" fill="none" stroke="#fff" stroke-width="4" opacity=".5"/>
    <path d="M25 560 h100 M25 500 h100 M25 440 h100 M25 380 h100" stroke="#2ad0c9" stroke-width="3" opacity=".7"/>
    <text x="18" y="180" font-family="Arial" font-size="42" fill="#fff" font-weight="900">API</text>
  </g>
</svg>
