<svg width="1800" height="560" viewBox="0 0 1800 560" xmlns="http://www.w3.org/2000/svg">
  <defs><linearGradient id="fade" x1="0" x2="0" y1="0" y2="1"><stop stop-color="#eef2f2"/><stop offset="1" stop-color="#dfe6e3"/></linearGradient></defs>
  <rect width="1800" height="560" fill="url(#fade)"/>
  <g stroke="#b9c4c7" stroke-width="8" fill="none" opacity=".9">
    <path d="M-50 120 C250 155 355 70 585 130 S930 165 1180 100 1550 95 1850 145"/>
    <path d="M0 340 C260 270 445 375 670 310 S920 210 1160 305 1475 390 1800 280"/>
    <path d="M180 0 C220 110 155 240 220 560"/><path d="M520 0 C490 150 610 270 560 560"/><path d="M870 0 C840 150 940 280 910 560"/><path d="M1240 0 C1220 120 1320 280 1280 560"/><path d="M1580 0 C1470 170 1650 330 1530 560"/>
  </g>
  <g fill="#d7eee9" opacity=".85"><rect x="75" y="230" width="250" height="110" rx="36"/><rect x="1120" y="365" width="350" height="130" rx="54"/><rect x="1325" y="50" width="280" height="110" rx="44"/></g>
  <g transform="translate(850 260)"><path d="M0 -58 C36 -58 64 -30 64 4 C64 48 0 112 0 112 C0 112 -64 48 -64 4 C-64 -30 -36 -58 0 -58Z" fill="#ff4a12" opacity=".85"/><circle r="22" fill="#fff"/></g>
  <g transform="translate(70 70)"><rect width="340" height="115" rx="12" fill="#fff" opacity=".97"/><text x="25" y="38" font-family="Arial" font-size="22" fill="#111" font-weight="700">Illusive UA Studio</text><text x="25" y="70" font-family="Arial" font-size="17" fill="#666">Київ / віддалено</text><text x="25" y="98" font-family="Arial" font-size="17" fill="#ff4a12">Design & Web</text></g>
  <rect width="1800" height="560" fill="#fff" opacity=".42"/>
</svg>
