<svg width="720" height="720" viewBox="0 0 720 720" xmlns="http://www.w3.org/2000/svg">
  <defs><linearGradient id="bg" x1="0" x2="1" y1="0" y2="1"><stop stop-color="#f1d0b6"/><stop offset="1" stop-color="#f5f0e8"/></linearGradient><filter id="s"><feDropShadow dx="0" dy="18" stdDeviation="18" flood-opacity=".25"/></filter></defs>
  <rect width="720" height="720" rx="34" fill="url(#bg)"/>
  <g filter="url(#s)">
    <rect x="120" y="130" width="480" height="300" rx="24" fill="#141414"/>
    <rect x="150" y="165" width="185" height="20" rx="10" fill="#ff4a12"/>
    <rect x="150" y="205" width="120" height="14" rx="7" fill="#fff" opacity=".55"/>
    <rect x="150" y="250" width="86" height="86" rx="16" fill="#262626"/><text x="174" y="305" fill="#fff" font-family="Arial" font-size="28" font-weight="900">92</text>
    <rect x="258" y="250" width="86" height="86" rx="16" fill="#262626"/><text x="284" y="305" fill="#fff" font-family="Arial" font-size="28" font-weight="900">+41</text>
    <path d="M390 330 C435 290 455 235 515 260 C552 276 556 212 590 198" stroke="#ff4a12" stroke-width="10" fill="none" stroke-linecap="round"/>
  </g>
  <g transform="translate(110 465) rotate(-8)" filter="url(#s)"><rect width="220" height="150" rx="18" fill="#fff"/><text x="28" y="55" font-family="Arial" font-size="22" font-weight="900" fill="#151515">SEO Core</text><rect x="28" y="82" width="160" height="12" rx="6" fill="#ddd"/><rect x="28" y="110" width="110" height="12" rx="6" fill="#ff4a12"/></g>
  <g transform="translate(380 470) rotate(7)" filter="url(#s)"><rect width="220" height="150" rx="18" fill="#111"/><text x="28" y="60" font-family="Arial" font-size="34" font-weight="900" fill="#fff">ADS</text><text x="30" y="98" font-family="Arial" font-size="22" font-weight="900" fill="#ff4a12">launch</text></g>
</svg>
